<svg xmlns="http://www.w3.org/2000/svg" viewBox="0 0 29.7 30"><defs><style>.cls-1{fill:#fff;}</style></defs><title>Ресурс 2</title><g id="Слой_2" data-name="Слой 2"><g id="Слой_1-2" data-name="Слой 1"><path class="cls-1" d="M6.36,3.5A2.9,2.9,0,0,0,3.47,6.42V23.58A2.9,2.9,0,0,0,6.36,26.5h17a2.91,2.91,0,0,0,2.89-2.92V6.42A2.91,2.91,0,0,0,23.35,3.5Zm17,26.5h-17A6.4,6.4,0,0,1,0,23.58V6.42A6.4,6.4,0,0,1,6.36,0h17A6.39,6.39,0,0,1,29.7,6.42V23.58A6.39,6.39,0,0,1,23.35,30Z"/><path class="cls-1" d="M14.85,10.21A4.79,4.79,0,1,0,19.59,15a4.77,4.77,0,0,0-4.74-4.79Zm0,13.08A8.29,8.29,0,1,1,23.06,15a8.26,8.26,0,0,1-8.21,8.29Z"/><path class="cls-1" d="M24.73,7a1.48,1.48,0,1,1-1.48-1.49A1.48,1.48,0,0,1,24.73,7Z"/></g></g></svg>